<mxfile host="65bd71144e">
    <diagram id="gGdhodiOZO5iC0aZF4RU" name="Deklaration">
        <mxGraphModel dx="798" dy="610" grid="1" gridSize="10" guides="1" tooltips="1" connect="1" arrows="1" fold="1" page="1" pageScale="1" pageWidth="827" pageHeight="1169" math="0" shadow="0">
            <root>
                <mxCell id="0"/>
                <mxCell id="1" parent="0"/>
                <mxCell id="9" style="edgeStyle=none;html=1;" edge="1" parent="1" source="3" target="5">
                    <mxGeometry relative="1" as="geometry"/>
                </mxCell>
                <mxCell id="3" value="Start" style="rounded=1;whiteSpace=wrap;html=1;fillColor=#008a00;fontColor=#ffffff;strokeColor=#005700;" vertex="1" parent="1">
                    <mxGeometry x="340" y="50" width="100" height="40" as="geometry"/>
                </mxCell>
                <mxCell id="4" value="Stop" style="rounded=1;whiteSpace=wrap;html=1;fillColor=#a20025;fontColor=#ffffff;strokeColor=#6F0000;" vertex="1" parent="1">
                    <mxGeometry x="340" y="520" width="100" height="40" as="geometry"/>
                </mxCell>
                <mxCell id="5" value="firstName = &quot;Max&quot;" style="rounded=0;whiteSpace=wrap;html=1;" vertex="1" parent="1">
                    <mxGeometry x="260" y="140" width="120" height="60" as="geometry"/>
                </mxCell>
                <mxCell id="6" value="Ausgabe firstName" style="shape=parallelogram;perimeter=parallelogramPerimeter;whiteSpace=wrap;html=1;fixedSize=1;" vertex="1" parent="1">
                    <mxGeometry x="240" y="200" width="140" height="60" as="geometry"/>
                </mxCell>
            </root>
        </mxGraphModel>
    </diagram>
    <diagram name="FamilyName" id="mXlkOLX1Dp56OZYZqnTY">
        <mxGraphModel dx="798" dy="610" grid="1" gridSize="10" guides="1" tooltips="1" connect="1" arrows="1" fold="1" page="1" pageScale="1" pageWidth="827" pageHeight="1169" math="0" shadow="0">
            <root>
                <mxCell id="fSZinGSRB97kHrwqoCWl-0"/>
                <mxCell id="fSZinGSRB97kHrwqoCWl-1" parent="fSZinGSRB97kHrwqoCWl-0"/>
                <mxCell id="fSZinGSRB97kHrwqoCWl-2" style="edgeStyle=none;html=1;" edge="1" parent="fSZinGSRB97kHrwqoCWl-1" source="fSZinGSRB97kHrwqoCWl-3" target="fSZinGSRB97kHrwqoCWl-5">
                    <mxGeometry relative="1" as="geometry"/>
                </mxCell>
                <mxCell id="fSZinGSRB97kHrwqoCWl-9" style="edgeStyle=none;html=1;entryX=0.392;entryY=-0.033;entryDx=0;entryDy=0;entryPerimeter=0;" edge="1" parent="fSZinGSRB97kHrwqoCWl-1" source="fSZinGSRB97kHrwqoCWl-3" target="fSZinGSRB97kHrwqoCWl-7">
                    <mxGeometry relative="1" as="geometry"/>
                </mxCell>
                <mxCell id="fSZinGSRB97kHrwqoCWl-3" value="Start" style="rounded=1;whiteSpace=wrap;html=1;fillColor=#008a00;fontColor=#ffffff;strokeColor=#005700;" vertex="1" parent="fSZinGSRB97kHrwqoCWl-1">
                    <mxGeometry x="350" y="50" width="100" height="40" as="geometry"/>
                </mxCell>
                <mxCell id="fSZinGSRB97kHrwqoCWl-4" value="Stop" style="rounded=1;whiteSpace=wrap;html=1;fillColor=#a20025;fontColor=#ffffff;strokeColor=#6F0000;" vertex="1" parent="fSZinGSRB97kHrwqoCWl-1">
                    <mxGeometry x="345" y="520" width="100" height="40" as="geometry"/>
                </mxCell>
                <mxCell id="fSZinGSRB97kHrwqoCWl-10" style="edgeStyle=none;html=1;entryX=0.25;entryY=0;entryDx=0;entryDy=0;" edge="1" parent="fSZinGSRB97kHrwqoCWl-1" source="fSZinGSRB97kHrwqoCWl-5" target="fSZinGSRB97kHrwqoCWl-6">
                    <mxGeometry relative="1" as="geometry"/>
                </mxCell>
                <mxCell id="fSZinGSRB97kHrwqoCWl-5" value="firstName = &quot;Max&quot;" style="rounded=0;whiteSpace=wrap;html=1;" vertex="1" parent="fSZinGSRB97kHrwqoCWl-1">
                    <mxGeometry x="260" y="140" width="120" height="60" as="geometry"/>
                </mxCell>
                <mxCell id="fSZinGSRB97kHrwqoCWl-12" style="edgeStyle=none;html=1;entryX=0.5;entryY=0;entryDx=0;entryDy=0;" edge="1" parent="fSZinGSRB97kHrwqoCWl-1" source="fSZinGSRB97kHrwqoCWl-6" target="fSZinGSRB97kHrwqoCWl-4">
                    <mxGeometry relative="1" as="geometry"/>
                </mxCell>
                <mxCell id="fSZinGSRB97kHrwqoCWl-6" value="Ausgabe&lt;br&gt;&amp;nbsp;firstName &amp;amp;&lt;br&gt;lastName" style="shape=parallelogram;perimeter=parallelogramPerimeter;whiteSpace=wrap;html=1;fixedSize=1;" vertex="1" parent="fSZinGSRB97kHrwqoCWl-1">
                    <mxGeometry x="320" y="310" width="150" height="60" as="geometry"/>
                </mxCell>
                <mxCell id="fSZinGSRB97kHrwqoCWl-11" style="edgeStyle=none;html=1;entryX=0.75;entryY=0;entryDx=0;entryDy=0;" edge="1" parent="fSZinGSRB97kHrwqoCWl-1" source="fSZinGSRB97kHrwqoCWl-7" target="fSZinGSRB97kHrwqoCWl-6">
                    <mxGeometry relative="1" as="geometry"/>
                </mxCell>
                <mxCell id="fSZinGSRB97kHrwqoCWl-7" value="lastName = &quot;MÃ¼tze&quot;" style="rounded=0;whiteSpace=wrap;html=1;" vertex="1" parent="fSZinGSRB97kHrwqoCWl-1">
                    <mxGeometry x="430" y="140" width="120" height="60" as="geometry"/>
                </mxCell>
            </root>
        </mxGraphModel>
    </diagram>
</mxfile>